<svg width="40" height="40" viewBox="0 0 40 40" fill="none" xmlns="http://www.w3.org/2000/svg">
<g clip-path="url(#clip0)">
<path d="M20 -0.0499878C8.94459 -0.0499878 -0.0499878 8.94459 -0.0499878 20C-0.0499878 31.0553 8.94459 40.0499 20 40.0499C31.0553 40.0499 40.0499 31.0553 40.0499 20C40.0499 8.94459 31.0554 -0.0499878 20 -0.0499878ZM20 38.2108C9.95802 38.2108 1.78911 30.0419 1.78911 20C1.78911 9.95802 9.95802 1.78911 20 1.78911C30.0419 1.78911 38.2108 9.95802 38.2108 20C38.2108 30.0419 30.0419 38.2108 20 38.2108Z" fill="#909090" stroke="#909090" stroke-width="0.1"/>
<path d="M20.0016 19.7723C12.4571 19.7723 6.31891 25.9105 6.31891 33.455C6.31891 34.0615 6.81113 34.5537 7.41761 34.5537C8.02409 34.5537 8.51631 34.0614 8.51631 33.4549C8.51631 27.1213 13.668 21.9696 20.0016 21.9696C26.3352 21.9696 31.4869 27.1213 31.4869 33.4549C31.4869 34.0614 31.9791 34.5536 32.5856 34.5536C33.1921 34.5536 33.6843 34.0614 33.6843 33.4549C33.6843 25.9105 27.5461 19.7723 20.0016 19.7723Z" fill="#909090" stroke="#909090" stroke-width="0.1"/>
<path d="M20.0005 6.35025C15.9251 6.35025 12.6098 9.66542 12.6098 13.741C12.6098 17.8165 15.925 21.1317 20.0005 21.1317C24.076 21.1317 27.3912 17.8164 27.3912 13.741C27.3912 9.66552 24.076 6.35025 20.0005 6.35025ZM20.0005 18.9343C17.138 18.9343 14.8072 16.6034 14.8072 13.741C14.8072 10.8785 17.138 8.54765 20.0005 8.54765C22.863 8.54765 25.1938 10.8785 25.1938 13.741C25.1938 16.6034 22.8631 18.9343 20.0005 18.9343Z" fill="#909090" stroke="#909090" stroke-width="0.1"/>
<circle cx="33.5" cy="33.5" r="6.5" fill="#00FF57"/>
<path d="M30.5 33.5L32.75 35.75L36.5 31.25" stroke="white" stroke-width="2" stroke-linecap="round" stroke-linejoin="round"/>
</g>
<defs>
<clipPath id="clip0">
<rect width="40" height="40" fill="white"/>
</clipPath>
</defs>
</svg>
