<?xml version="1.0" encoding="UTF-8"?>
<!DOCTYPE svg PUBLIC "-//W3C//DTD SVG 1.1//EN" "http://www.w3.org/Graphics/SVG/1.1/DTD/svg11.dtd">
<!-- Creator: CorelDRAW X5 -->
<svg xmlns="http://www.w3.org/2000/svg" xml:space="preserve" width="20.921mm" height="31.4476mm" style="shape-rendering:geometricPrecision; text-rendering:geometricPrecision; image-rendering:optimizeQuality; fill-rule:evenodd; clip-rule:evenodd"
viewBox="0 0 2092 3145"
 xmlns:xlink="http://www.w3.org/1999/xlink"
 xmlns:svg="http://www.w3.org/2000/svg">
 <defs>
  <style type="text/css">
   <![CDATA[
    .fil2 {fill:#0B9444}
    .fil1 {fill:#E3A413}
    .fil3 {fill:#332C2B;fill-rule:nonzero}
    .fil0 {fill:black;fill-rule:nonzero}
   ]]>
  </style>
 </defs>
 <g id="Layer_x0020_1">
  <metadata id="CorelCorpID_0Corel-Layer"/>
 </g>
 <g id="svg2">
  <metadata id="CorelCorpID_1Corel-Layer"/>
  <path class="fil0" d="M195 2400c0,11 3,20 8,27 5,6 14,9 25,9 8,0 16,-1 24,-2 8,-1 16,-3 24,-5l0 -154 -29 -5 0 -9 64 0 0 181 25 5 0 9 -57 0 -2 -16c-4,2 -9,4 -14,7 -6,2 -11,5 -17,6 -6,2 -12,4 -18,5 -6,1 -12,2 -17,2 -7,0 -14,-1 -20,-3 -6,-2 -11,-5 -16,-10 -4,-5 -8,-10 -10,-18 -2,-7 -4,-16 -4,-27l0 -128 -25 -5 0 -9 59 0 0 139zm215 -124c4,-2 9,-5 14,-7 5,-2 11,-5 17,-7 6,-2 12,-4 17,-5 6,-1 11,-2 16,-2 8,0 14,1 21,3 6,2 12,5 16,10 5,5 8,10 11,18 3,7 4,16 4,27l0 128 24 5 0 9 -84 0 0 -9 26 -5 0 -125c0,-12 -3,-21 -8,-27 -6,-7 -14,-10 -26,-10 -4,0 -8,0 -12,1 -4,0 -9,1 -13,1 -4,0 -8,1 -12,2 -4,1 -7,1 -9,2l0 155 26 5 0 9 -84 0 0 -9 23 -5 0 -166 -23 -5 0 -9 56 0 2 16zm224 -80c0,3 -1,6 -2,9 -1,3 -3,5 -5,7 -2,2 -4,4 -7,5 -3,1 -6,2 -9,2 -3,0 -6,-1 -9,-2 -3,-1 -5,-3 -7,-5 -2,-2 -4,-4 -5,-7 -1,-3 -2,-6 -2,-9 0,-3 1,-6 2,-9 1,-3 3,-5 5,-7 2,-2 4,-4 7,-5 3,-1 6,-2 9,-2 3,0 6,1 9,2 3,1 5,3 7,5 2,2 4,4 5,7 1,3 2,6 2,9zm-2 244l33 5 0 9 -101 0 0 -9 33 -5 0 -166 -28 -5 0 -9 62 0 0 181zm235 -167l-78 186 -15 0 -81 -185 -20 -5 0 -9 91 0 0 9 -31 6 57 135 54 -135 -31 -5 0 -9 72 0 0 9 -19 4zm73 83l0 4c0,10 1,20 2,29 1,9 4,18 9,25 4,7 10,13 18,17 8,4 18,6 31,6 4,0 9,0 13,-1 5,0 9,-1 14,-1 5,-1 9,-1 13,-2 4,-1 8,-1 12,-2l0 12c-3,2 -7,4 -12,6 -4,2 -9,4 -15,5 -5,2 -11,3 -17,4 -6,1 -12,1 -18,1 -16,0 -30,-2 -41,-7 -11,-4 -20,-11 -27,-20 -7,-9 -12,-20 -15,-32 -3,-13 -5,-28 -5,-44 0,-34 7,-59 21,-76 14,-17 35,-25 61,-25 10,0 20,1 29,4 9,3 17,7 24,14 7,6 12,15 16,26 4,11 6,25 6,41l0 17 -120 0zm45 -85c-8,0 -14,2 -20,5 -6,3 -10,8 -14,14 -4,6 -6,13 -8,22 -2,9 -3,18 -3,29l83 0c0,-10 -1,-20 -2,-29 -1,-9 -3,-16 -6,-22 -3,-6 -7,-10 -12,-14 -5,-3 -11,-5 -19,-5zm227 -17l0 53 -9 0 -12 -23c-4,0 -8,0 -12,1 -4,1 -9,1 -13,2 -4,1 -9,2 -13,3 -4,1 -8,3 -11,4l0 146 33 5 0 9 -93 0 0 -9 25 -5 0 -166 -25 -5 0 -9 57 0 2 24c3,-3 8,-6 13,-9 6,-3 11,-7 18,-10 6,-3 13,-6 19,-8 6,-2 12,-3 17,-3l3 0zm154 146c0,9 -1,17 -4,24 -3,7 -7,14 -13,19 -6,5 -13,9 -23,12 -9,3 -20,4 -33,4 -7,0 -13,0 -19,-1 -6,-1 -12,-2 -18,-3 -5,-1 -10,-2 -14,-3 -4,-1 -7,-2 -9,-3l0 -48 9 0 10 27c4,4 10,7 17,10 7,3 15,4 24,4 13,0 23,-3 30,-8 7,-6 10,-14 10,-26 0,-7 -1,-13 -4,-17 -3,-4 -7,-8 -11,-11 -5,-3 -10,-6 -16,-8 -6,-2 -12,-4 -18,-6 -6,-2 -12,-4 -19,-7 -6,-3 -11,-6 -16,-10 -5,-4 -9,-9 -11,-16 -3,-6 -4,-14 -4,-23 0,-9 2,-17 5,-24 3,-7 8,-13 13,-17 6,-5 13,-8 21,-11 8,-2 17,-4 26,-4 9,0 19,1 28,2 9,1 18,3 26,4l0 42 -10 0 -9 -23c-4,-3 -9,-6 -15,-7 -6,-2 -13,-2 -20,-2 -11,0 -20,3 -26,8 -6,6 -9,13 -9,22 0,6 1,12 4,16 3,4 7,8 12,10 5,3 10,5 16,7 6,2 12,4 19,6 6,2 13,5 19,8 6,3 12,6 16,11 5,4 9,10 12,16 3,6 4,14 4,24zm94 -204c0,3 -1,6 -2,9 -1,3 -3,5 -5,7 -2,2 -4,4 -7,5 -3,1 -6,2 -9,2 -3,0 -6,-1 -9,-2 -3,-1 -5,-3 -7,-5 -2,-2 -4,-4 -5,-7 -1,-3 -2,-6 -2,-9 0,-3 1,-6 2,-9 1,-3 3,-5 5,-7 2,-2 4,-4 7,-5 3,-1 6,-2 9,-2 3,0 6,1 9,2 3,1 5,3 7,5 2,2 4,4 5,7 1,3 2,6 2,9zm-2 244l33 5 0 9 -101 0 0 -9 33 -5 0 -166 -28 -5 0 -9 62 0 0 181zm111 19c-13,0 -23,-4 -30,-12 -7,-8 -10,-19 -10,-33l0 -137 -26 0 0 -9 26 -8 21 -44 13 0 0 44 45 0 0 17 -45 0 0 133c0,9 2,16 6,20 4,5 9,7 16,7 5,0 10,0 15,-1 5,-1 10,-1 14,-2l0 14c-2,1 -5,3 -8,4 -3,1 -7,3 -11,4 -4,1 -8,2 -13,3 -5,1 -9,1 -14,1zm145 -204c9,0 17,1 25,2 8,2 14,5 20,9 6,4 10,9 13,16 3,7 5,15 5,26l0 132 24 5 0 9 -54 0 -4 -19c-2,2 -5,4 -8,7 -4,3 -8,5 -13,8 -5,2 -11,4 -17,6 -7,2 -14,2 -22,2 -9,0 -17,-1 -24,-4 -6,-3 -12,-7 -16,-12 -4,-5 -7,-11 -8,-19 -2,-7 -2,-15 -2,-23 0,-9 1,-16 3,-22 2,-6 5,-12 9,-16 4,-4 8,-8 13,-10 5,-3 11,-5 16,-6 6,-1 12,-3 19,-3 7,-1 13,-1 20,-1l29 -1 0 -31c0,-6 -1,-11 -1,-16 -1,-5 -3,-9 -5,-12 -2,-3 -5,-6 -9,-8 -4,-2 -9,-3 -15,-3 -7,0 -13,1 -20,3 -7,2 -13,4 -18,7l-7 24 -12 0 0 -43c9,-2 18,-4 28,-5 10,-1 20,-2 31,-2zm28 100l-27 1c-8,0 -15,1 -21,2 -6,1 -11,4 -15,7 -4,3 -7,8 -9,13 -2,6 -3,13 -3,21 0,24 10,37 30,37 9,0 18,-1 24,-3 7,-2 14,-5 21,-8l0 -69zm215 45c0,9 -1,17 -4,24 -3,7 -7,14 -13,19 -6,5 -13,9 -23,12 -9,3 -20,4 -33,4 -7,0 -13,0 -19,-1 -6,-1 -12,-2 -18,-3 -5,-1 -10,-2 -14,-3 -4,-1 -7,-2 -9,-3l0 -48 9 0 10 27c4,4 10,7 17,10 7,3 15,4 24,4 13,0 23,-3 30,-8 7,-6 10,-14 10,-26 0,-7 -1,-13 -4,-17 -3,-4 -7,-8 -11,-11 -5,-3 -10,-6 -16,-8 -6,-2 -12,-4 -18,-6 -6,-2 -12,-4 -19,-7 -6,-3 -11,-6 -16,-10 -5,-4 -9,-9 -11,-16 -3,-6 -4,-14 -4,-23 0,-9 2,-17 5,-24 3,-7 8,-13 13,-17 6,-5 13,-8 21,-11 8,-2 17,-4 26,-4 9,0 19,1 28,2 9,1 18,3 26,4l0 42 -10 0 -9 -23c-4,-3 -9,-6 -15,-7 -6,-2 -13,-2 -20,-2 -11,0 -20,3 -26,8 -6,6 -9,13 -9,22 0,6 1,12 4,16 3,4 7,8 12,10 5,3 10,5 16,7 6,2 12,4 19,6 6,2 13,5 19,8 6,3 12,6 16,11 5,4 9,10 12,16 3,6 4,14 4,24z"/>
  <path class="fil0" d="M106 2828l-7 0 -62 -197 0 180 23 5 0 13 -60 0 0 -13 22 -5 0 -199 -22 -5 0 -13 66 0 48 153 49 -153 68 0 0 13 -22 5 0 199 22 5 0 13 -84 0 0 -13 23 -5 0 -180 -63 197zm186 -13l0 13 -51 0 0 -13 13 -5 60 -218 36 0 60 218 13 5 0 13 -75 0 0 -13 19 -5 -16 -60 -65 0 -15 60 22 5zm27 -187l-28 103 55 0 -27 -103zm197 -21l-26 5 0 198 34 0c10,0 19,0 26,-1 7,-1 11,-2 14,-2l10 -48 11 0 -5 71 -152 0 0 -13 22 -5 0 -199 -21 -5 0 -13 87 0 0 13zm150 203l22 5 0 13 -83 0 0 -13 22 -5 0 -198 -22 -5 0 -13 83 0 0 13 -22 5 0 198zm215 -216l0 13 -21 5 -56 68 74 131 16 5 0 13 -55 0 -63 -112 -15 17 0 78 24 5 0 13 -85 0 0 -13 22 -5 0 -199 -22 -5 0 -13 83 0 0 13 -22 5 0 95 77 -95 -15 -5 0 -13 58 0zm121 212c7,0 13,-1 18,-4 5,-3 9,-7 12,-12 3,-5 6,-11 7,-18 2,-7 2,-15 2,-23l0 -137 -23 -5 0 -13 57 0 0 13 -19 5 0 136c0,10 -1,20 -3,30 -2,10 -6,19 -10,27 -5,8 -12,14 -20,19 -8,5 -19,7 -31,7 -12,0 -22,-2 -31,-6 -9,-4 -16,-9 -22,-17 -6,-7 -10,-16 -13,-27 -3,-11 -4,-22 -4,-36l0 -134 -19 -5 0 -13 80 0 0 13 -22 5 0 137c0,9 1,17 2,24 2,7 4,13 7,18 3,5 7,9 12,12 5,3 11,4 18,4zm94 -50l11 0 6 37c2,3 4,5 7,8 3,2 6,5 9,6 3,2 7,3 11,4 4,1 8,2 12,2 7,0 12,-1 17,-3 5,-2 8,-5 11,-8 3,-4 5,-8 6,-13 1,-5 2,-11 2,-17 0,-7 -1,-13 -4,-17 -3,-5 -6,-8 -10,-12 -4,-3 -9,-6 -14,-9 -5,-2 -11,-5 -17,-8 -6,-3 -11,-6 -17,-10 -5,-4 -10,-8 -14,-14 -4,-6 -8,-12 -10,-20 -3,-8 -4,-18 -4,-29 0,-21 5,-36 15,-47 10,-11 25,-16 44,-16 4,0 8,0 12,1 4,0 8,1 12,2 4,1 8,1 12,2 4,1 7,2 10,3l0 55 -11 0 -6 -32c-4,-4 -8,-7 -13,-9 -5,-2 -11,-4 -17,-4 -6,0 -11,1 -15,2 -4,2 -7,4 -10,7 -3,3 -5,6 -6,10 -1,4 -2,8 -2,13 0,6 1,11 4,16 3,4 6,8 10,11 4,3 9,6 14,8 5,2 11,5 17,8 6,3 11,6 17,10 5,4 10,8 14,14 4,6 8,12 10,20 3,8 4,17 4,29 0,11 -1,22 -4,31 -2,9 -6,17 -11,23 -5,6 -12,11 -20,15 -8,4 -18,5 -29,5 -5,0 -11,0 -16,-1 -5,-1 -10,-2 -15,-3 -5,-1 -9,-2 -13,-4 -4,-1 -8,-3 -10,-5l0 -63zm143 0l11 0 6 37c2,3 4,5 7,8 3,2 6,5 9,6 3,2 7,3 11,4 4,1 8,2 12,2 7,0 12,-1 17,-3 5,-2 8,-5 11,-8 3,-4 5,-8 6,-13 1,-5 2,-11 2,-17 0,-7 -1,-13 -4,-17 -3,-5 -6,-8 -10,-12 -4,-3 -9,-6 -14,-9 -5,-2 -11,-5 -17,-8 -6,-3 -11,-6 -17,-10 -5,-4 -10,-8 -14,-14 -4,-6 -8,-12 -10,-20 -3,-8 -4,-18 -4,-29 0,-21 5,-36 15,-47 10,-11 25,-16 44,-16 4,0 8,0 12,1 4,0 8,1 12,2 4,1 8,1 12,2 4,1 7,2 10,3l0 55 -11 0 -6 -32c-4,-4 -8,-7 -13,-9 -5,-2 -11,-4 -17,-4 -6,0 -11,1 -15,2 -4,2 -7,4 -10,7 -3,3 -5,6 -6,10 -1,4 -2,8 -2,13 0,6 1,11 4,16 3,4 6,8 10,11 4,3 9,6 14,8 5,2 11,5 17,8 6,3 11,6 17,10 5,4 10,8 14,14 4,6 8,12 10,20 3,8 4,17 4,29 0,11 -1,22 -4,31 -2,9 -6,17 -11,23 -5,6 -12,11 -20,15 -8,4 -18,5 -29,5 -5,0 -11,0 -16,-1 -5,-1 -10,-2 -15,-3 -5,-1 -9,-2 -13,-4 -4,-1 -8,-3 -10,-5l0 -63zm183 59l0 13 -51 0 0 -13 13 -5 60 -218 36 0 60 218 13 5 0 13 -75 0 0 -13 19 -5 -16 -60 -65 0 -15 60 22 5zm27 -187l-28 103 55 0 -27 -103zm197 -21l-26 5 0 198 34 0c10,0 19,0 26,-1 7,-1 11,-2 14,-2l10 -48 11 0 -5 71 -152 0 0 -13 22 -5 0 -199 -21 -5 0 -13 87 0 0 13zm84 208l22 -5 0 -199 -22 -5 0 -13 144 0 0 59 -11 0 -4 -37c-3,0 -6,-1 -10,-1 -4,0 -8,-1 -12,-1 -4,0 -8,0 -11,0 -4,0 -6,0 -8,0l-26 0 0 85 44 0 4 -26 11 0 0 72 -11 0 -4 -26 -44 0 0 90 32 0c5,0 10,0 15,0 5,0 9,0 12,-1 4,0 7,0 9,-1 3,0 5,-1 6,-1l7 -43 11 0 -2 65 -152 0 0 -13zm172 13l0 -13 22 -5 0 -198 -22 -5 0 -13 83 0 0 13 -22 5 0 86 69 0 0 -86 -22 -5 0 -13 83 0 0 13 -22 5 0 198 22 5 0 13 -83 0 0 -13 22 -5 0 -93 -69 0 0 93 22 5 0 13 -83 0z"/>
  <path class="fil1" d="M1048 5c-1,-6 -2,-7 -3,0 -29,291 -527,220 -350,641 -385,-237 -831,324 -248,688 2,-16 0,-48 1,-65 -284,-245 -34,-638 303,-562 -47,-302 200,-272 286,-378l0 46c-5,3 -9,9 -9,15l0 58c0,7 4,12 9,15l0 31c-5,3 -9,9 -9,15l0 20c0,1 -1,1 -1,2l-21 49c-6,1 -10,5 -13,10l-24 53c-3,6 -2,14 3,19l-12 27c-5,2 -9,5 -11,10l-24 53c-1,2 -1,4 -2,6 -2,1 -4,1 -6,2 -20,9 -22,19 0,30 61,38 89,105 82,202 -107,16 -172,75 -156,137 29,113 90,148 155,173 6,73 -3,142 -44,201 0,0 0,0 0,0 -31,31 -102,37 0,65 57,10 123,8 199,-1 81,-28 14,-31 -13,-66 -39,-57 -52,-107 -45,-197 100,-36 140,-105 158,-186 5,-64 -69,-110 -158,-124 -4,-107 24,-172 79,-200 26,-13 27,-24 0,-33 -1,0 -1,0 -2,-1 0,-3 0,-5 -2,-8l-24 -53c-3,-6 -8,-10 -14,-10l-10 -24c5,-5 6,-13 3,-19l-24 -53c-2,-5 -7,-9 -12,-10l-21 -50c0,-1 -1,-2 -1,-2l0 -20c0,-7 -4,-12 -9,-15l0 -31c5,-3 9,-9 9,-15l0 -58c0,-7 -4,-12 -9,-15l0 -41c90,100 328,76 281,372 337,-76 587,317 303,562 2,16 0,48 1,65 583,-364 137,-925 -248,-688 177,-421 -321,-350 -350,-641zm28 626l0 4c0,4 -3,7 -7,8l0 42c0,7 -4,12 -9,15l0 42c23,0 45,2 65,6l-15 -33c-3,-6 -2,-13 2,-18l-11 -26c-5,-1 -10,-5 -12,-10l-14 -32zm-18 12c-2,-1 -4,-3 -4,-6 -1,0 -2,-1 -3,-1l-2 0c-4,0 -8,4 -8,8l0 26c0,0 0,1 0,1 2,-2 4,-3 6,-3l6 0c2,0 4,1 6,2 0,0 0,-1 0,-1l0 -26c0,0 0,-1 0,-1zm-5 -32l0 -24c-1,0 -1,0 -2,0l-5 0c-6,0 -11,-3 -14,-7l-4 10c4,5 6,12 3,19l-24 53c-3,6 -8,9 -13,10l-11 25c5,5 7,13 4,20l-15 33c21,-3 43,-5 65,-6l0 -42c-5,-3 -9,-9 -9,-15l0 -58c0,-10 8,-18 18,-18l5 0c1,0 1,0 2,0zm0 -50l0 0c0,-2 1,-4 2,-5l-5 -12c-2,-4 0,-9 4,-11l4 -2 0 -2c0,-1 0,-2 -1,-3 -1,1 -3,2 -5,2l-6 0c-2,0 -4,-1 -5,-2 0,1 -1,2 -1,3l0 2 4 2c4,2 6,7 4,11l-7 16c1,2 4,3 6,3l2 0c1,0 2,0 3,-1zm5 -154c-2,2 -4,2 -6,2l-6 0c-2,0 -4,-1 -6,-3 0,0 0,1 0,1l0 26c0,1 0,2 0,3 1,-1 3,-2 6,-2l6 0c2,0 4,1 6,2 0,-1 0,-2 0,-3l0 -26c0,0 0,-1 0,-1zm-60 203c1,2 2,3 4,3l6 2c2,1 5,1 7,0 0,1 0,2 -1,3l-11 24c0,0 0,1 0,1 -1,-2 -2,-3 -4,-4l-6 -2c-2,-1 -5,-1 -7,0 0,-1 0,-1 1,-2l11 -24c0,0 0,-1 1,-1zm101 1c-1,1 -2,2 -3,3l-6 2c-2,1 -5,1 -7,0 0,1 0,3 1,4l10 23c1,-1 2,-2 4,-3l6 -2c3,-1 6,-1 8,1 0,-1 0,-1 -1,-2l-11 -24c0,-1 -1,-1 -1,-1zm-145 108c1,1 2,2 3,2l6 2c3,1 6,1 9,-1 0,1 0,3 -1,4l-11 24c0,0 0,1 -1,1 -4,1 -7,1 -11,2l-1 0c-4,-2 -6,-6 -4,-10l10 -23zm190 -2c-1,2 -2,4 -4,4l-6 2c-2,1 -4,1 -6,0 0,1 0,1 1,2l11 24c0,0 0,1 1,1 4,1 7,1 10,2l1 -1c4,-2 6,-6 4,-10l-11 -24c0,-1 -1,-1 -1,-2z"/>
  <path class="fil0" d="M957 1154c0,7 -1,16 -2,26 0,2 -1,11 -3,26l-4 0c0,-2 0,-8 1,-17 0,-17 -2,-33 -7,-48 -4,-12 -9,-23 -15,-33 -3,-5 -8,-11 -14,-19l12 -26c6,8 12,15 16,21 6,9 10,19 13,30 3,12 5,26 5,41z"/>
  <path class="fil0" d="M1038 1179l-7 26c-8,-5 -14,-13 -16,-25 -2,-10 -3,-27 -3,-51 -6,2 -10,3 -12,4 -3,1 -5,1 -8,1 -9,0 -16,-2 -21,-6 -5,-4 -8,-9 -8,-16 0,-5 1,-11 4,-19 3,-9 7,-17 12,-23 7,-7 14,-11 23,-11 7,0 12,4 15,11 3,6 5,14 6,26 1,7 1,17 1,31 2,19 4,32 7,39 1,3 4,8 8,13zm-28 -72c0,-7 -1,-13 -3,-17 -3,-5 -7,-8 -14,-8 -5,0 -10,2 -14,6 -5,4 -7,7 -7,10 0,3 2,6 6,8 4,2 9,3 15,3 2,0 5,0 9,-1 4,0 6,-1 8,-1z"/>
  <path class="fil0" d="M1112 1174l-5 28c-5,-4 -9,-7 -12,-10 -5,-5 -8,-11 -10,-19 -3,-9 -4,-20 -4,-34 0,-5 0,-10 1,-15 0,-1 1,-10 3,-24 -4,1 -7,1 -9,2 -6,1 -11,2 -15,2 -13,0 -21,-1 -25,-4 -3,-2 -5,-6 -5,-13 0,-3 0,-7 0,-12 0,-5 0,-9 0,-12l4 -1c2,5 4,8 6,9 4,3 10,5 19,5 6,0 14,-1 22,-2 2,0 6,-1 13,-3 -1,8 -2,15 -3,19 -1,7 -1,13 -1,19 0,13 1,24 3,33 2,7 5,14 8,19 1,2 5,6 10,13z"/>
  <path class="fil0" d="M1180 1179l-7 26c-8,-5 -14,-13 -16,-25 -2,-10 -3,-27 -3,-51 -6,2 -10,3 -12,4 -3,1 -5,1 -8,1 -9,0 -16,-2 -21,-6 -5,-4 -8,-9 -8,-16 0,-5 1,-11 4,-19 3,-9 7,-17 12,-23 7,-7 14,-11 23,-11 7,0 12,4 15,11 3,6 5,14 6,26 1,7 1,17 1,31 2,19 4,32 7,39 1,3 4,8 8,13zm-28 -72c0,-7 -1,-13 -3,-17 -3,-5 -7,-8 -14,-8 -5,0 -10,2 -14,6 -5,4 -7,7 -7,10 0,3 2,6 6,8 4,2 9,3 15,3 2,0 5,0 9,-1 4,0 6,-1 8,-1z"/>
  <path class="fil2" d="M1377 852c198,115 332,330 332,577 0,368 -297,666 -662,666 -366,0 -662,-298 -662,-666 0,-252 139,-471 344,-584 -114,94 -187,238 -187,399 0,284 227,515 507,515 280,0 507,-230 507,-515 0,-157 -69,-298 -179,-392z"/>
  <path class="fil3" d="M163 3104l1 -5 20 -2 19 -107 -5 0c-4,0 -7,0 -10,0 -3,0 -5,0 -7,0 -2,0 -4,0 -5,1 -1,0 -3,0 -4,1l-6 19 -6 0 5 -29 98 0 -5 29 -6 0 1 -19c-2,0 -5,-1 -10,-1 -4,0 -10,-1 -17,-1l-4 0 -19 107 19 2 -1 5 -56 0zm116 -123l-11 -2 1 -4 26 0 -8 45c0,1 -1,3 -1,4 0,2 -1,3 -1,5 0,2 -1,3 -1,4 0,1 0,2 -1,3 2,-3 4,-5 7,-8 2,-2 5,-5 8,-6 3,-2 6,-3 8,-4 3,-1 6,-2 9,-2 3,0 5,0 8,1 2,1 4,2 6,3 2,2 3,4 4,6 1,2 1,5 1,9 0,1 0,2 0,3 0,1 0,3 -1,4 0,1 -1,3 -1,5 0,2 0,3 -1,4l-8 47 12 2 -1 4 -27 0 9 -53c0,-1 0,-3 1,-4 0,-1 0,-3 1,-4 0,-1 0,-3 1,-4 0,-1 0,-2 0,-3 0,-3 -1,-5 -2,-7 -1,-2 -4,-3 -7,-3 -3,0 -5,1 -8,2 -3,1 -5,3 -8,4 -2,2 -5,4 -7,6 -2,2 -4,5 -5,7l-10 58 -15 0 22 -123zm144 54c0,4 -1,8 -4,11 -2,4 -6,7 -11,10 -5,3 -11,5 -18,7 -7,2 -15,3 -24,4 0,1 0,1 0,3 0,1 0,2 0,4 0,3 0,6 1,9 1,3 2,5 3,7 1,2 3,4 6,5 2,1 6,2 10,2 5,0 11,-1 15,-3 5,-2 9,-4 13,-6l3 4c-2,2 -4,3 -7,5 -3,2 -5,3 -9,5 -3,1 -6,3 -10,4 -3,1 -7,1 -10,1 -5,0 -10,-1 -13,-2 -4,-1 -7,-4 -10,-6 -3,-3 -4,-6 -6,-10 -1,-4 -2,-8 -2,-13 0,-5 1,-11 2,-16 1,-5 3,-10 5,-14 2,-4 5,-8 8,-12 3,-4 6,-7 10,-9 4,-2 7,-4 11,-6 4,-1 8,-2 12,-2 4,0 7,0 10,1 3,1 6,2 8,4 2,2 4,4 5,6 1,2 2,5 2,7zm-56 26c7,-1 12,-2 17,-3 5,-2 9,-4 12,-6 3,-2 6,-5 7,-8 2,-3 2,-6 2,-9 0,-3 -1,-6 -3,-8 -2,-2 -5,-3 -8,-3 -4,0 -7,1 -10,3 -3,2 -6,5 -9,9 -3,4 -5,8 -6,12 -2,4 -3,9 -4,13zm165 -25c6,0 11,-1 16,-2 4,-1 8,-3 10,-5 3,-2 4,-5 5,-8 1,-3 2,-7 2,-12 0,-6 -2,-11 -6,-14 -4,-3 -10,-5 -20,-5l-14 0 -8 45 15 0zm-2 61c7,0 12,-1 17,-2 4,-1 8,-3 10,-6 3,-3 4,-6 5,-9 1,-4 2,-8 2,-12 0,-8 -3,-14 -8,-18 -5,-4 -13,-6 -23,-6l-17 0 -9 52c3,0 6,0 9,0 3,0 5,0 8,0 3,0 5,0 7,0zm-54 8l1 -5 12 -2 19 -108 -15 -2 1 -5 50 0c8,0 14,1 19,2 5,1 9,3 12,5 3,2 5,5 7,8 1,3 2,7 2,10 0,5 -1,9 -2,12 -2,4 -4,7 -6,9 -3,3 -6,5 -10,6 -4,2 -8,3 -12,3 4,0 8,1 12,2 4,1 7,3 9,5 3,2 5,5 6,8 2,3 2,7 2,12 0,13 -4,23 -13,29 -9,6 -22,9 -40,9 -3,0 -7,0 -10,0 -3,0 -6,0 -9,0 -3,0 -6,0 -8,0 -3,0 -5,0 -8,0l-19 0zm139 -6l14 2 -1 4 -30 0 22 -123 -12 -2 1 -4 27 0 -22 123zm104 -63c0,4 -1,8 -4,11 -2,4 -6,7 -11,10 -5,3 -11,5 -18,7 -7,2 -15,3 -24,4 0,1 0,1 0,3 0,1 0,2 0,4 0,3 0,6 1,9 1,3 2,5 3,7 1,2 3,4 6,5 2,1 6,2 10,2 5,0 11,-1 15,-3 5,-2 9,-4 13,-6l3 4c-2,2 -4,3 -7,5 -3,2 -5,3 -9,5 -3,1 -6,3 -10,4 -3,1 -7,1 -10,1 -5,0 -10,-1 -13,-2 -4,-1 -7,-4 -10,-6 -3,-3 -4,-6 -6,-10 -1,-4 -2,-8 -2,-13 0,-5 1,-11 2,-16 1,-5 3,-10 5,-14 2,-4 5,-8 8,-12 3,-4 6,-7 10,-9 4,-2 7,-4 11,-6 4,-1 8,-2 12,-2 4,0 7,0 10,1 3,1 6,2 8,4 2,2 4,4 5,6 1,2 2,5 2,7zm-56 26c7,-1 12,-2 17,-3 5,-2 9,-4 12,-6 3,-2 6,-5 7,-8 2,-3 2,-6 2,-9 0,-3 -1,-6 -3,-8 -2,-2 -5,-3 -8,-3 -4,0 -7,1 -10,3 -3,2 -6,5 -9,9 -3,4 -5,8 -6,12 -2,4 -3,9 -4,13zm123 18c0,9 -3,16 -9,20 -6,4 -15,7 -27,7 -5,0 -10,-1 -15,-2 -4,-1 -8,-3 -11,-4l4 -21 4 0 2 12c2,2 4,3 7,5 3,1 6,2 10,2 3,0 5,0 8,-1 2,-1 5,-1 6,-3 2,-1 3,-3 4,-5 1,-2 2,-5 2,-8 0,-3 -1,-6 -3,-8 -2,-2 -4,-4 -7,-6 -3,-2 -6,-3 -9,-5 -3,-2 -6,-3 -9,-5 -3,-2 -5,-4 -7,-7 -2,-3 -3,-6 -3,-10 0,-5 1,-8 3,-12 2,-3 4,-6 7,-8 3,-2 6,-3 10,-4 4,-1 8,-1 12,-1 4,0 9,0 13,1 4,1 8,1 12,2l-3 19 -4 0 -1 -10c-2,-2 -4,-3 -7,-4 -3,-1 -6,-1 -9,-1 -5,0 -9,1 -12,3 -3,2 -4,6 -4,11 0,3 1,5 3,7 2,2 4,4 7,6 3,2 6,3 9,5 3,2 6,3 9,6 3,2 5,5 7,7 2,3 3,6 3,11zm73 0c0,9 -3,16 -9,20 -6,4 -15,7 -27,7 -5,0 -10,-1 -15,-2 -4,-1 -8,-3 -11,-4l4 -21 4 0 2 12c2,2 4,3 7,5 3,1 6,2 10,2 3,0 5,0 8,-1 2,-1 5,-1 6,-3 2,-1 3,-3 4,-5 1,-2 2,-5 2,-8 0,-3 -1,-6 -3,-8 -2,-2 -4,-4 -7,-6 -3,-2 -6,-3 -9,-5 -3,-2 -6,-3 -9,-5 -3,-2 -5,-4 -7,-7 -2,-3 -3,-6 -3,-10 0,-5 1,-8 3,-12 2,-3 4,-6 7,-8 3,-2 6,-3 10,-4 4,-1 8,-1 12,-1 4,0 9,0 13,1 4,1 8,1 12,2l-3 19 -4 0 -1 -10c-2,-2 -4,-3 -7,-4 -3,-1 -6,-1 -9,-1 -5,0 -9,1 -12,3 -3,2 -4,6 -4,11 0,3 1,5 3,7 2,2 4,4 7,6 3,2 6,3 9,5 3,2 6,3 9,6 3,2 5,5 7,7 2,3 3,6 3,11zm36 19l14 2 -1 4 -30 0 14 -79 -12 -2 1 -4 27 0 -14 79zm20 -107c0,1 0,3 -1,4 -1,1 -1,2 -2,3 -1,1 -2,2 -3,2 -1,1 -2,1 -4,1 -1,0 -3,0 -4,-1 -1,-1 -2,-1 -3,-2 -1,-1 -2,-2 -2,-3 -1,-1 -1,-2 -1,-4 0,-1 0,-3 1,-4 1,-1 1,-2 2,-3 1,-1 2,-2 3,-2 1,-1 2,-1 4,-1 1,0 3,0 4,1 1,1 2,1 3,2 1,1 2,2 2,3 1,1 1,2 1,4zm75 46c0,-3 -1,-5 -2,-7 -1,-2 -4,-3 -7,-3 -3,0 -5,1 -8,2 -3,1 -5,3 -8,5 -2,2 -5,4 -7,6 -2,2 -4,5 -5,7l-10 57 -15 0 14 -79 -11 -2 1 -4 25 0 -2 18c2,-3 5,-6 7,-8 3,-2 5,-5 8,-6 3,-2 5,-3 8,-4 3,-1 6,-1 9,-1 3,0 5,0 8,1 2,1 4,2 6,3 2,2 3,4 4,6 1,2 1,5 1,9 0,1 0,2 0,3 0,1 0,3 -1,4 0,1 -1,3 -1,5 0,2 0,3 -1,4l-8 47 12 2 -1 4 -27 0 9 -53c0,-1 0,-3 1,-4 0,-1 0,-3 1,-4 0,-1 0,-3 1,-4 0,-1 0,-2 0,-3zm63 59c2,0 4,0 6,-1 2,-1 4,-2 6,-3 2,-1 4,-3 6,-4 2,-2 4,-3 5,-4l10 -56c-1,0 -3,-1 -4,-1 -1,0 -2,-1 -3,-1 -1,0 -2,0 -4,0 -1,0 -3,0 -4,0 -5,0 -9,1 -14,4 -4,3 -8,7 -11,11 -3,5 -5,10 -7,16 -2,6 -3,12 -3,19 0,3 0,6 1,9 1,3 2,5 3,7 1,2 3,3 5,5 2,1 4,2 7,2zm22 -5c-1,1 -3,3 -5,5 -2,2 -4,4 -7,5 -3,2 -5,3 -8,4 -3,1 -6,2 -9,2 -4,0 -8,-1 -11,-2 -3,-1 -6,-4 -8,-6 -2,-3 -4,-6 -5,-10 -1,-4 -2,-8 -2,-12 0,-5 1,-11 2,-16 1,-5 3,-10 5,-14 2,-4 5,-8 8,-12 3,-4 7,-7 10,-9 4,-3 8,-5 12,-6 4,-1 9,-2 14,-2 2,0 4,0 7,0 3,0 5,1 8,1 3,0 5,1 8,1 3,0 5,1 7,1l-15 87c-1,7 -3,12 -5,17 -2,5 -5,8 -8,11 -3,3 -8,5 -12,6 -5,1 -10,2 -16,2 -3,0 -6,0 -10,-1 -3,0 -6,-1 -9,-2 -3,-1 -5,-1 -7,-2 -2,-1 -4,-2 -5,-2l2 -21 4 0 3 11c2,2 5,4 9,5 4,1 8,2 13,2 4,0 8,-1 11,-2 3,-1 6,-3 8,-5 2,-2 4,-5 5,-8 1,-3 2,-6 2,-9l4 -21zm198 -100l-16 -2 1 -5 42 0 -1 5 -16 2 -13 73c-1,6 -3,11 -5,16 -2,5 -6,10 -10,14 -4,4 -10,7 -16,10 -6,2 -14,4 -22,4 -14,0 -25,-3 -32,-9 -7,-6 -11,-14 -11,-25 0,-2 0,-3 0,-5 0,-2 0,-3 1,-5l13 -74 -15 -2 1 -5 49 0 -1 5 -16 2 -13 73c0,2 -1,3 -1,5 0,2 0,3 0,5 0,4 1,7 2,10 1,3 3,6 5,8 2,2 5,4 8,5 3,1 8,2 12,2 7,0 13,-1 18,-3 5,-2 9,-4 12,-7 3,-3 6,-7 8,-11 2,-4 3,-8 4,-12l13 -74zm85 47c0,-3 -1,-5 -2,-7 -1,-2 -4,-3 -7,-3 -3,0 -5,1 -8,2 -3,1 -5,3 -8,5 -2,2 -5,4 -7,6 -2,2 -4,5 -5,7l-10 57 -15 0 14 -79 -11 -2 1 -4 25 0 -2 18c2,-3 5,-6 7,-8 3,-2 5,-5 8,-6 3,-2 5,-3 8,-4 3,-1 6,-1 9,-1 3,0 5,0 8,1 2,1 4,2 6,3 2,2 3,4 4,6 1,2 1,5 1,9 0,1 0,2 0,3 0,1 0,3 -1,4 0,1 -1,3 -1,5 0,2 0,3 -1,4l-8 47 12 2 -1 4 -27 0 9 -53c0,-1 0,-3 1,-4 0,-1 0,-3 1,-4 0,-1 0,-3 0,-4 0,-1 0,-2 0,-3zm51 62l14 2 -1 4 -30 0 14 -79 -12 -2 1 -4 27 0 -14 79zm20 -107c0,1 0,3 -1,4 -1,1 -1,2 -2,3 -1,1 -2,2 -3,2 -1,1 -2,1 -4,1 -1,0 -3,0 -4,-1 -1,-1 -2,-1 -3,-2 -1,-1 -2,-2 -2,-3 -1,-1 -1,-2 -1,-4 0,-1 0,-3 1,-4 1,-1 1,-2 2,-3 1,-1 2,-2 3,-2 1,-1 2,-1 4,-1 1,0 3,0 4,1 1,1 2,1 3,2 1,1 2,2 2,3 1,1 1,2 1,4zm68 58c2,-3 4,-7 5,-10 1,-3 1,-6 1,-8 0,-2 -1,-4 -2,-5 -1,-1 -3,-2 -4,-3l1 -4 17 0c1,1 1,1 2,2 1,1 1,2 1,3 0,2 -1,5 -1,8 -1,3 -3,7 -6,12l-39 62 -7 0 -17 -81 -10 -2 1 -4 23 0 13 67 23 -37zm99 -13c0,4 -1,8 -4,11 -2,4 -6,7 -11,10 -5,3 -11,5 -18,7 -7,2 -15,3 -24,4 0,1 0,1 0,3 0,1 0,2 0,4 0,3 0,6 1,9 1,3 2,5 3,7 1,2 3,4 6,5 2,1 6,2 10,2 5,0 11,-1 15,-3 5,-2 9,-4 13,-6l3 4c-2,2 -4,3 -7,5 -3,2 -5,3 -9,5 -3,1 -6,3 -10,4 -3,1 -7,1 -10,1 -5,0 -10,-1 -13,-2 -4,-1 -7,-4 -10,-6 -3,-3 -4,-6 -6,-10 -1,-4 -2,-8 -2,-13 0,-5 1,-11 2,-16 1,-5 3,-10 5,-14 2,-4 5,-8 8,-12 3,-4 6,-7 10,-9 4,-2 7,-4 11,-6 4,-1 8,-2 12,-2 4,0 7,0 10,1 3,1 6,2 8,4 2,2 4,4 5,6 1,2 2,5 2,7zm-56 26c7,-1 12,-2 17,-3 5,-2 9,-4 12,-6 3,-2 6,-5 7,-8 2,-3 2,-6 2,-9 0,-3 -1,-6 -3,-8 -2,-2 -5,-3 -8,-3 -4,0 -7,1 -10,3 -3,2 -6,5 -9,9 -3,4 -5,8 -6,12 -2,4 -3,9 -4,13zm126 -45c1,0 3,0 4,0 1,0 3,0 3,1l-4 22 -4 0 -3 -12c-3,0 -5,1 -8,2 -3,1 -5,3 -8,4 -2,2 -5,4 -7,6 -2,2 -4,5 -6,8l-10 56 -15 0 14 -79 -11 -2 1 -4 25 0 -3 19c2,-4 5,-7 8,-10 3,-3 5,-5 8,-7 3,-2 5,-3 8,-4 3,-1 5,-1 8,-1zm70 63c0,9 -3,16 -9,20 -6,4 -15,7 -27,7 -5,0 -10,-1 -15,-2 -4,-1 -8,-3 -11,-4l4 -21 4 0 2 12c2,2 4,3 7,5 3,1 6,2 10,2 3,0 5,0 8,-1 2,-1 5,-1 6,-3 2,-1 3,-3 4,-5 1,-2 2,-5 2,-8 0,-3 -1,-6 -3,-8 -2,-2 -4,-4 -7,-6 -3,-2 -6,-3 -9,-5 -3,-2 -6,-3 -9,-5 -3,-2 -5,-4 -7,-7 -2,-3 -3,-6 -3,-10 0,-5 1,-8 3,-12 2,-3 4,-6 7,-8 3,-2 6,-3 10,-4 4,-1 8,-1 12,-1 4,0 9,0 13,1 4,1 8,1 12,2l-3 19 -4 0 -1 -10c-2,-2 -4,-3 -7,-4 -3,-1 -6,-1 -9,-1 -5,0 -9,1 -12,3 -3,2 -4,6 -4,11 0,3 1,5 3,7 2,2 4,4 7,6 3,2 6,3 9,5 3,2 6,3 9,6 3,2 5,5 7,7 2,3 3,6 3,11zm36 19l14 2 -1 4 -30 0 14 -79 -12 -2 1 -4 27 0 -14 79zm20 -107c0,1 0,3 -1,4 -1,1 -1,2 -2,3 -1,1 -2,2 -3,2 -1,1 -2,1 -4,1 -1,0 -3,0 -4,-1 -1,-1 -2,-1 -3,-2 -1,-1 -2,-2 -2,-3 -1,-1 -1,-2 -1,-4 0,-1 0,-3 1,-4 1,-1 1,-2 2,-3 1,-1 2,-2 3,-2 1,-1 2,-1 4,-1 1,0 3,0 4,1 1,1 2,1 3,2 1,1 2,2 2,3 1,1 1,2 1,4zm30 98c0,3 1,5 2,6 1,1 3,2 5,2 3,0 5,0 7,-1 2,0 4,-1 7,-2l2 4c-3,2 -6,4 -10,6 -4,2 -8,2 -13,2 -3,0 -5,0 -7,-1 -2,-1 -4,-2 -5,-3 -1,-1 -2,-3 -3,-5 -1,-2 -1,-4 -1,-7 0,-2 0,-4 0,-6 0,-2 1,-4 1,-6l9 -51 -11 0 1 -4 12 -4 12 -19 6 0 -3 19 20 0 -1 8 -20 0 -9 50c-1,3 -1,5 -1,7 0,2 0,4 0,5zm33 -70l23 0 13 67 22 -37c2,-4 3,-7 4,-10 1,-3 1,-6 1,-8 0,-2 -1,-4 -2,-5 -1,-1 -3,-2 -4,-3l1 -4 17 0c1,1 1,1 2,2 1,1 1,2 1,3 0,2 -1,5 -2,8 -1,3 -3,7 -6,12l-36 61c-4,6 -7,12 -10,16 -3,5 -6,9 -10,12 -3,3 -7,6 -10,8 -4,2 -7,3 -12,3 -2,0 -3,0 -4,0 -1,0 -2,0 -3,0 -1,0 -2,0 -3,-1 -1,0 -2,0 -3,-1l3 -19 4 0 1 9c2,1 4,2 7,2 3,0 5,-1 8,-2 2,-2 5,-3 7,-6 2,-2 4,-5 6,-8 2,-3 4,-6 5,-9l4 -7 -17 -78 -10 -2 1 -4z"/>
 </g>
</svg>
